<?xml version="1.0" encoding="UTF-8"?>
<!DOCTYPE svg  PUBLIC '-//W3C//DTD SVG 1.1//EN'  'http://www.w3.org/Graphics/SVG/1.1/DTD/svg11.dtd'>
<svg clip-rule="evenodd" fill-rule="evenodd" stroke-linecap="round" stroke-linejoin="round" stroke-miterlimit="1.5" version="1.1" viewBox="0 0 512 512" xml:space="preserve" xmlns="http://www.w3.org/2000/svg">
    <g transform="translate(-25.503 1.0474)">
        <g transform="translate(25.5 12)">
            <path d="m320 199-6-2c-3.324-6.343-4.749-14.584-5-24l15-8 9 13-13 21z" fill="#f7a901" stroke="#000" stroke-width="1px"/>
        </g>
        <g transform="translate(25.5 12)">
            <path d="m139 266-10-4c-2.483-3.551-4.054-9.839-5-18l11-6 4 28z" fill="#f7a901" stroke="#000" stroke-width="1px"/>
        </g>
        <g transform="translate(25.5 12)">
            <path d="m33 391c1.001 23.673 28.174 30.027 39 7l-3-28.884 37-50.116 40-34 32-36.5-16-40.5-30.751 28.558v26.442l5.251 2-28.5 28-23 31-31 45.116-21 21.884z" fill="#26282a" stroke="#000" stroke-width="1px"/>
        </g>
        <g transform="matrix(.78792 0 0 .80917 238.5 .69345)">
            <path d="m33 391c1.001 23.673 28.174 30.027 39 7l-3-28.884 37-50.116 40-34 32-36.5-16-40.5-30.751 28.558v26.442l5.251 2-28.5 28-23 31-31 45.116-21 21.884z" fill="#26282a" stroke="#000" stroke-width="1.25px"/>
        </g>
        <g transform="translate(25.5 12)">
            <path d="m343.34 164 12.486-6.5 7.804-6.5 26.732-36.704 1.643-23.296-24-11-32 5-6 24 2 42 11.335 13z" fill="#26282a" stroke="#000" stroke-width="1px"/>
        </g>
        <g transform="translate(25.5 12)">
            <path d="m7 161.5c-0.034-22.57 10.906-35.496 32-39.5 4.348 1.773 7.495 3.946 8 7l-14 21-13 20-13-8.5z" fill="#f7a901" stroke="#000" stroke-width="1px"/>
        </g>
        <g transform="translate(25.5 12)">
            <path d="m240 97c2.939-13.728 10.736-22.597 26-24l9 3-8 15-27 6z" fill="#f7a901" stroke="#000" stroke-width="1px"/>
        </g>
        <g transform="translate(25.5 12)">
            <path d="m263.61 97.739 11.394-21.739 8 9-15 12-4.394 0.739z" fill="#26282a" stroke="#000" stroke-width="1px"/>
        </g>
        <g transform="translate(25.5 12)">
            <path d="m42.231 123.53 2.769-1.533 6 4 13 12-15 10-13 2 1.524-6.785 9.476-14.215-4.769-5.467z" fill="#26282a" stroke="#000" stroke-width="1px"/>
        </g>
        <g transform="translate(25.5 12)">
            <path d="m216 187-36 29-51 17-40 6.683-13-39.683 12-49 65-22 48 4.088 15 53.912z" fill="#26282a" stroke="#000" stroke-width="1px"/>
        </g>
        <g transform="translate(25.5 12)">
            <path d="m94 236.56 106-34.558-11 21-48 21-29 4-18-11.442z" fill="#f7a901" stroke="#000" stroke-width="1px"/>
        </g>
        <g transform="translate(25.5 12)">
            <path d="m353.25 161.5 12.751 2.5 7-2.5 1-9.5-14-1-6.751 10.5z" fill="#f7a901" stroke="#000" stroke-width="1px"/>
        </g>
        <g transform="translate(25.5 12)">
            <path d="m95 157 4 58 13 33-10 2-11 3-41-16.442-38-74.558 26-18 3-5 289-69 16 4 7.249-1 9.751 1 2 2 25 3 13 3 5 7-2 32-21-9-3-19-11-7-30 7 5 11-2.665 60-82.335 35-60 16-18-42.724-3-26.276-15-8-70 19z" fill="#fec600" stroke="#000" stroke-width="1px"/>
        </g>
        <g transform="translate(25.5 12)">
            <path d="m307 131-1 7 30-9 1-7-30 9z" fill="#3c4951" stroke="#000" stroke-width="1px"/>
        </g>
        <g transform="translate(25.5 12)">
            <path d="m293 138-19.697 18-86.478 25.355-8.825-2.355 3-7 112-34z" fill="#3c4951" stroke="#000" stroke-width="1px"/>
        </g>
        <g transform="translate(25.5 12)">
            <path d="m347 122c-0.314 0.85-7 0-7 0l-3-3-34 11-10 8" fill="none" stroke="#000" stroke-width="1px"/>
        </g>
        <g stroke="#000" stroke-width="1px">
            <path d="m173 478c0.656 26.945 28.206 37.473 44 10l-2-31c15.076-34.755 37.964-63.931 68-88 11.036-10 20.238-20 27-30l-27-53-116-74-5 15c0.507 5.148 5.369 8.989 13 12l-1.15 6.83 24.578 18.968 20.036 6.411 4.809-2.938c20.536 14.426 38.953 28.852 52.362 43.279l12.824 8.548 0.534 8.817-20.037 22.173c-17.401 18.55-32.645 39.69-46.484 62.514l-24.578 38.203-24.894 26.195z" fill="#26282a"/>
            <path d="m157 221c46.243 25.522 93.626 61.302 141 97 0.084 12.553 1.568 21.374 5 25l10 2 8-5c2.162-15.043 1.302-28.841-1-45l-100-105c-10.279-7.831-21.49-12.864-34-14-20.247 6.535-31.069 20.611-29 45z" fill="#fec600"/>
        </g>
        <g transform="matrix(.91699 0 0 .80799 235.01 -26.207)" stroke="#000" stroke-width="1.16px" serifId="leg">
            <path d="m173 478c0.656 26.945 28.206 37.473 44 10l-2-31c15.076-34.755 37.964-63.931 68-88 11.036-10 20.238-20 27-30l-27-53-116-74-5 15c0.507 5.148 5.369 8.989 13 12l-1.15 6.83 24.578 18.968 20.036 6.411 4.809-2.938c20.536 14.426 38.953 28.852 52.362 43.279l12.824 8.548 0.534 8.817-20.037 22.173c-17.401 18.55-32.645 39.69-46.484 62.514l-24.578 38.203-24.894 26.195z" fill="#26282a"/>
            <path d="m157 221c46.243 25.522 93.626 61.302 141 97 0.084 12.553 1.568 21.374 5 25l10 2 8-5c2.162-15.043 1.302-28.841-1-45l-100-105c-10.279-7.831-21.49-12.864-34-14-20.247 6.535-31.069 20.611-29 45z" fill="#fec600"/>
        </g>
        <g transform="translate(25.5 12)">
            <path d="m50 228 32 14-31-59-31-13 30 58z" fill="#f7a901" stroke="#000" stroke-width="1px"/>
        </g>
        <g transform="translate(25.5 12)">
            <path d="m47 218h9l-22.549-42.359-10.581-4.437 24.13 46.796z" fill="#3c4951" stroke="#000" stroke-width="1px"/>
        </g>
        <g transform="translate(25.5 12)">
            <path d="M46,181.355L65,220L72.446,223.816L51,183L46,181.355Z" fill="#26282a" stroke="#000" stroke-width="1px"/>
        </g>
    </g>
</svg>
