<?xml version="1.0" encoding="UTF-8"?>
<!DOCTYPE svg  PUBLIC '-//W3C//DTD SVG 1.1//EN'  'http://www.w3.org/Graphics/SVG/1.1/DTD/svg11.dtd'>
<svg clip-rule="evenodd" fill-rule="evenodd" stroke-linecap="round" stroke-linejoin="round" stroke-miterlimit="1.5" version="1.1" viewBox="0 0 512 512" xml:space="preserve" xmlns="http://www.w3.org/2000/svg">
    <g transform="translate(2.9203 49.04)">
        <g stroke="#000" stroke-width="1px">
            <path d="m101 375-0.829 4.249-16.067-1.499-0.429 7.712-16.068-3.213-1.285 4.927-17.139-4.499-1.5 1.071-12.64-6.427-11.14-0.428 3.642-13.069-3.642-4.07-8.998 2.785-6.213-2.785 6.856-8.356-3.856-13.068h-6.427l-4.714-2.999 9.641-5.142 1.285-16.925-6.855-6.427 7.927 0.429 9.854-18.21-5.141-9.213 5.57 2.357 6.856-2.785 5.998-6.427-0.214-11.569 4.07 1.928 10.07-2.142 51.388 113.8z" fill="#26282a"/>
            <path d="m81.318 370.63c11.898-6.327-39.654-55.687-42.731-36.077-4.237 27.001 19.715 48.313 42.731 36.077z" fill="#7e7777"/>
        </g>
        <g stroke="#000" stroke-width="1px">
            
                <path d="m153 385.66 38 11.337-13-42-39-10c-4.169 15.114-1.257 28.978 14 40.663z" fill="#7e7777"/>
                <path d="m237.09 415.8c-19.632-23.476-16.088-53.753-16.088-53.753l-186-50.18s-0.944 29.343 20 51.138l182.09 52.795zm-84.088-30.132 38 11.337c-7.359-15.513-11.354-29.344-13-42l-39-10c-1.174 14.085 2.605 27.72 14 40.663z" fill="#4b4b46"/>
                <path d="m49.815 268.68-6.815-2.676-3-3c1.906-8.183 6.413-14.742 13-20l3 21-6.185 4.676z" fill="#f7a901"/>
                <path d="m49.815 268.68 176.41 43.648-20.227-26.324c11.933-32.201 27.068-54.797 44-72 15.921 9.882 27.221 20.689 36 32l93 33 7-7c-16.884-36.285-45.55-68.285-86-96l-184-33c-34.138 19.186-56 39.957-68 62l1.815 63.676z" fill="#4b4b46"/>
                <path d="m226.23 312.32-112.7-27.883-21.756-26.03 114.22 27.589 20.227 26.324z" fill="#3c4951"/>
                <path d="m91.776 258.41 19.224-40.411-64-13-0.471 62.386 67.003 17.055-21.756-26.03" fill="#3c4951"/>
                <path d="m224.09 362c-1.368-16.542 1.139-32.6 8.912-48l-194-48c-6.148 12.01-8.708 26.711-8 43.862l193.09 52.138z" fill="#fec001"/>
                <path d="m226.23 312.32 6.773 1.676 146-48c-26.515-22.739-57.916-27.968-93-20-10.591-13.132-22.552-23.867-36-32-17.278 18.125-32.435 41.02-44 72l20.227 26.324z" fill="#fec001"/>
                <path d="m233 314 32.61 35.12 111.39-45.12 2-38c-52.426-47.108-113.57-20.012-146 48z" fill="#f7a901"/>
                <path d="m233 314c-8.028 15.702-10.596 31.726-8.912 48l41.522-12.88-32.61-35.12" fill="#f7a901"/>
                <path d="m275 366-37.912 49.795c-13.407-17.918-18.107-35.836-16.088-53.753l44.61-12.922 9.39 16.88z" fill="#f7a901"/>
            
            
                <path d="m300 176-184-33c62.007-25.836 123.42-37.443 184-29l195 29-195 33z" fill="#fec600"/>
                <path d="m386 272 107-80-30 61-77 19z" fill="#3c4951"/>
                <path d="m386 272 107-80 2-49c-60.09-13.171-125.63 0.467-195 33l86 96z" fill="#f7a901"/>
            
        </g>
        <g stroke="#000" stroke-width="1px">
            <path d="m321 321-15.5 14v105l21.5-6 143-77 5-74 6.553-20.985-35.311-4.88-125.24 63.865z" fill="#26282a"/>
            <path d="m240.82 442.85 16.068 2.343 13.724 6.025 17.742 5.356 1.004-5.69 14.059 2.008 1.004-7.699 13.725 1.674 1.339-7.699 12.72 0.669v-7.03l12.72 0.335 1.339-7.364 13.39-0.67 1.674-8.368 9.708 1.004 3.012-7.364 11.716 1.004-0.334-8.034 12.385 1.339 0.335-7.03 11.381 1.004 0.335-5.021 11.381 1.004 0.67-6.025 11.046 1.339 1.005-6.36 10.042 1.004 1.339-5.356 11.716 0.335-0.67-8.034 10.712 1.004-0.669-7.699 13.724-1.339-3.347-14.394 16.402-2.343-8.703-11.047 17.742-12.72-16.403-7.699 19.75-18.746-16.068 0.67 9.373-16.068 5.691-8.034-9.708 2.343-3.682-7.699 6.36-12.385-7.364 0.669-4.352-2.343 0.335-5.691-30.127-6.36-1.004 3.348-10.712-2.009-0.335 7.03-12.386-0.67v5.691l-11.716-1.339-1.004 5.356h-10.377l-0.67 4.017-13.055 1.339v5.69l-10.711-0.334 0.669 5.356-12.72-1.674-2.343 6.695-11.047-1.004-1.674 6.025-12.385-1.339-1.005 5.356-11.046-1.004-3.013 4.017-11.716-1.005-0.669 5.356-12.051-1.004-1.674 5.021-14.394-0.335-1.004 6.026-14.394-1.004-0.335 10.377-16.068-0.335 0.335 11.047-8.703 10.042-8.704-1.674 2.344 10.712-7.7 18.411-7.364 1.004 4.686 5.691-1.004 20.085-7.029 7.029 3.347 3.682 4.017-0.669 1.674 12.051-5.356 11.046 8.368 4.017 5.691-0.669 3.347 2.008-4.351 13.725zm83.175-116.85-19.574 6.048-20.419 18.411-13.725 47.199 5.691 31.801 19.415 6.36 25.106-9.038 143.61-69.292 8.033-29.792 5.691-44.522 6.36-17.406-0.334-4.687-159.85 64.918z" fill="#26282a"/>
            <path d="m336 368c0.272 36.018-18.493 59.856-18.493 59.856l143.76-68.998s-12.642-7.415-11.263-35.858 17.489-55.274 17.489-55.274l-148.17 59.719s16.451 10.537 16.678 40.555z" fill="#4b4b46"/>
            <path d="m299 331c52.463-17.724 36.32 100.29-1 110-52.09 13.552-33.536-98.332 1-110z" fill="#7e7777"/>
            <path d="m476 356c26.806-12.469 38.34-103.8 4.387-93.512-33.953 10.284-42.061 111.04-4.387 93.512z" fill="#7e7777"/>
        </g>
        <g stroke="#000" stroke-width="1px">
            <path d="m147 182c17.911 15.355 51.491 6.294 68-10l-1-10c3.209-3.465 5.533-7.078 6-11-0.499-4.668-2.759-6.988-6-8 2.606-1.629 4.222-4 5-7l-2-8-15-9c-23.962-4.698-43.722-1.213-59 11l-11 11 2 9 2 7-1 3c-1.48 6.483 4.636 10.285 11 14l1 8z" fill="#7e7777"/>
            <path d="m139 155 1 5c7.392 8.282 23.982 8.516 46 4l-1-9c-17.58 4.494-33.173 5.013-46 0z" fill="#3c4951"/>
            <path d="m193 153 1 7.966c6.172 0.24 12.462-1.892 19-8.966l-1-7c-5.114 4.234-11.326 7.057-19 8z" fill="#3c4951"/>
        </g>
        
            <path d="m339 134c6.23 3.933 12.893 3.964 20 0v-23c4.587 0.067 8.583-0.605 12-2v-6c-2.073-1.112-4.757-1.765-8-2v-11.932h-25l-2 12.932c-2.52-0.252-5.187 0.082-8 1l2 4c2.163 1.772 5.497 3.105 10 4l-1 23z" fill="#7e7777" stroke="#000" stroke-width="1px"/>
            <path d="m357 49 55 5 3 4-2 28-4 4-57.637 1.903 5.637-42.903z" fill="#3c4951" stroke="#000" stroke-width="1px"/>
            <path d="m308 52-6 4-1 27 5 6.068 48 3 6-5.068 1-31-4-7-49 3z" fill="#7e7777" stroke="#000" stroke-width="1px"/>
            <g transform="matrix(.57407 0 0 1 121.91 -8)">
                <ellipse cx="341.5" cy="79.034" rx="9.5" ry="10.034" fill="#3c4951" stroke="#000" stroke-width="1.23px"/>
            </g>
            <g transform="matrix(.57407 0 0 1 123.63 -1)">
                <ellipse cx="373.5" cy="72.034" rx="9.5" ry="10.034" fill="#3c4951" stroke="#000" stroke-width="1.23px"/>
            </g>
        
        <g stroke="#000" stroke-width="1px">
            <path d="m309 117-16-2v-5l-3-2v-4l3-3 17 1 3 3v4l-4 3v5z" fill="#d74346"/>
            <path d="m487 140-3-7v-6l-2-1 1-9 3-14v-2l1-4-1-1 2-20v-2h-2v3l-2 20-2 4 2 2-3 14-2 6v3h-2l-2 5-5 7 17 2z" fill="#26282a"/>
        </g>
    </g>
</svg>
