<?xml version="1.0" encoding="UTF-8"?>
<!DOCTYPE svg  PUBLIC '-//W3C//DTD SVG 1.1//EN'  'http://www.w3.org/Graphics/SVG/1.1/DTD/svg11.dtd'>
<svg clip-rule="evenodd" fill-rule="evenodd" stroke-linecap="round" stroke-linejoin="round" stroke-miterlimit="1.5" version="1.1" viewBox="0 0 512 512" xml:space="preserve" xmlns="http://www.w3.org/2000/svg">
    <g transform="matrix(.98454 0 0 .98454 3.874 76.233)">
        <g stroke="#000" stroke-width="1.02px">
            <path d="m91 248-10.294-2.073-1.489 2.977-16.373-1.86-2.977 5.581-17.489-1.116-2.233 14.512-8.93 3.349h-11.908l1.117 14.141-10.419 26.792-7.071 3.721 4.838 5.581-1.116 32.002-5.582 11.535 8.558 3.349 9.303 16.001-3.349 13.768 39.444 4.838 3.721-11.164 22.611-2.238 48.638 5.304-39-145z" fill="#26282a"/>
            <path d="m72.519 391.8c36.449-5.662 42.039-132.95 0-117.96-35.281 12.581-38.327 123.91 0 117.96z" fill="#7e7777"/>
        </g>
        <g stroke="#000" stroke-width="1.02px">
            <path d="m70 378-8-9 237 22 6 9-235-22z" fill="#965900"/>
            <path d="m62 369v-72l238 17-1 77-237-22z" fill="#e5b700"/>
            <path d="m62 297 23-53 232 16-17 54-238-17z" fill="#eac708"/>
            <path d="m317 260 128-40-205-9-155 33 232 16z" fill="#c29003"/>
            <path d="m305 400 170-75-16-75-14-30-128 40-17 54-1 77 6 9z" fill="#ddb208"/>
        </g>
        <g stroke="#000" stroke-width="1.02px">
            <path d="m213 305 16-49-2-3-11-1 3-15-27-53-22-12-33-1-11 13-7 17 1 51 18 32s-6.097 14.165 16 22 25.422 0.525 27-3c0.034-0.047 32 2 32 2z" fill="#b2d0e6"/>
            <path d="m155 284c18.133 0.845 30.287 19.251 12 19s-32.25-19.944-12-19z" fill="#5d656d"/>
            <path d="m184.87 205.35v51.551l15.733 28.118 18.399-48.023-27-53-7.132 21.354z" fill="#fbfdfd"/>
            <path d="m142 202c20.679 0.305 21.395 31.781 3.029 33-19.072 1.266-20.186-33.253-3.029-33z" fill="#5d656d"/>
        </g>
        
            <path d="m488.3 257.66-8.012 41.342 2.715 43.183-6.937 6.817-48.063-6.817 8.142-24.183 2.858-44 24-18 25.297 1.658z" fill="#3c4951" stroke="#000" stroke-width="1.02px"/>
            <path d="m481.29 350.04-85.403 46.188-24.112-1.786-6.763-23.448 59.984-28.592 56.294 7.638z" fill="#3c4951" stroke="#000" stroke-width="1.02px"/>
            <path d="m457.51 345.33-35.723-62.217-17.861 51.5 3.572 8.335 44.654 5.358 5.358-2.976z" fill="#f6d103" stroke="#000" stroke-width="1.02px"/>
            <path d="m397.38 419.16-11.908-1.786-0.893 8.931-11.312-1.489-3.87 11.313-43.76-3.573 0.298-12.8-15.182-2.382 2.976-14.587-7.739-28.578-4.763-4.763 5.06-3.572 2.382-37.509-2.084-12.205 4.465-1.786 9.229-19.052 1.488-15.182 14.884-0.893 1.787-7.74h13.991l1.191-1.786 13.396 0.893 2.381-3.572 11.61 0.893 1.488-3.87 11.61 1.19 0.893-5.06 12.206 0.893 2.083-4.763 12.503 0.297v-6.846l10.717 0.893 0.893-5.954 12.503-0.893v-7.145h11.908l0.893-3.572 36.615 1.786-0.297 17.61 13.821-0.496-3.838 7.936 1.627 28.534 4.465 0.595-3.572 5.657-4.466 34.531 4.466 3.573-7.145 1.19-5.061 30.662-10.121-0.297-1.786 6.846-9.526-0.297-0.298 5.954-10.717-1.787-2.679 8.931-8.93-1.786-2.68 8.038-10.716-1.787-1.489 8.931-9.228-1.191-2.679 7.443-11.015-0.596-1.786 7.74-12.205 0.298-2.084 8.037zm85.62-163.16-17 12-23 12-30 10.968-31.398 1.67-16.075 50.904 6.252 50.608 22.624 2.083 66.385-33.341 24.708-15.48 13.098-44.951-5.061-43.164-10.533-3.297z" fill="#26282a" stroke="#000" stroke-width="1.02px"/>
            <path d="m420.3 364.38-36.318-24.708-5.061 21.731 39.89 5.06 1.489-2.083" fill="#965900" stroke="#000" stroke-width="1.02px"/>
            <path d="m373 291c34.141-2.34 22.407 126.44 3 130-36.655 6.718-27.74-128.3-3-130z" fill="#7e7777" stroke="#000" stroke-width="1.02px"/>
            <g transform="matrix(.73134 0 0 .84518 219.42 3.0782)">
                <path d="m374.37 289.82c33.974-3.747 22.407 126.44 0.266 131.18-36.372 7.786-26.373-128.3-0.266-131.18z" fill="#7e7777" stroke="#000" stroke-width="1.29px"/>
            </g>
            <path d="m392 396 2.712-13 82.982-40.817 2.591 8.992-2.439 11.584-82.914 45.268-2.932-12.027z" fill="#766e6b" stroke="#000" stroke-width="1.02px"/>
        
        
            <path d="m423.63 220.67 7.02-0.988 2.742-1.206-0.658-2.304-5.375-12.066-0.439-4.826-1.426-0.219-0.109-4.059-0.878-2.632 0.089-14.925 1.371-0.274-0.822-5.759-1.234-1.371-0.275-41.956 0.549-4.662-2.605-0.685-0.412 4.936 1.509 42.504-1.509 0.823v6.718l1.783 0.137 0.274 14.123-0.96 3.154 0.275 3.427-1.783 0.549-0.137 5.073-2.468 7.404-3.839 5.621 0.274 2.743 9.043 0.72z" fill="#26282a" stroke="#000" stroke-width="1.02px"/>
            <g transform="matrix(.71723 0 0 .84683 -54.845 26.299)">
                <path d="m423.63 220.67 7.02-0.988 2.742-1.206-0.658-2.304-5.375-12.066-0.439-4.826-1.426-0.219-0.109-4.059-0.878-2.632 0.089-14.925 1.371-0.274-0.822-5.759-1.234-1.371-0.275-41.956 0.549-4.662-2.605-0.685-0.412 4.936 1.509 42.504-1.509 0.823v6.718l1.783 0.137 0.274 14.123-0.96 3.154 0.275 3.427-1.783 0.549-0.137 5.073-2.468 7.404-3.839 5.621 0.274 2.743 9.043 0.72z" fill="#26282a" stroke="#000" stroke-width="1.29px"/>
            </g>
            <path d="m301.54 252.89-11.826-1.542-0.857-5.142-4.285-1.199 0.172-7.713 3.085-4.799 10.454-1.885 11.484 0.343 5.141 2.399 1.543 6.17v5.142l-3.085 1.028-1.029 2.057-0.171 4.113-10.626 1.028z" fill="#d74346" stroke="#000" stroke-width="1.02px"/>
        
    </g>
</svg>
