<?xml version="1.0" encoding="UTF-8"?>
<!DOCTYPE svg  PUBLIC '-//W3C//DTD SVG 1.1//EN'  'http://www.w3.org/Graphics/SVG/1.1/DTD/svg11.dtd'>
<svg clip-rule="evenodd" fill-rule="evenodd" stroke-linecap="round" stroke-linejoin="round" stroke-miterlimit="1.5" version="1.1" viewBox="0 0 512 512" xml:space="preserve" xmlns="http://www.w3.org/2000/svg">
    <g transform="matrix(1.2383 0 0 1.2383 -64.073 -81.433)">
        
            <g stroke="#000" stroke-width=".81px">
                <path d="m344 243.49-55-4.493-108.07 1.704 89.065 3.379 74.003-0.59z" fill="#c3c0c0"/>
                <path d="m222.29 237.76 0.197 3.343 53.004 3.737 29.206-2.557v-4.425l-4.523-0.492-0.197-4.032-11.407-0.295 0.295-10.03-3.934-6.589h-42.482l-3.441 6.687 0.295 9.441-11.604 0.688-0.295 4.425-5.114 0.099z" fill="#c4c0c0"/>
                <path d="m242.79 199.35-0.865-2.753-1.338-0.394 0.394-9.519 45.628 0.079-0.157 10.463-1.652 0.787 0.236 1.966-42.246-0.629z" fill="#c3c0c0"/>
                <path d="m242.79 199.35-0.338 17.074h42.482l0.102-16.445-42.246-0.629z" fill="#282421"/>
                <path d="m180.93 240.7-2.612 91.73 21.511 18.285 43.023 4.61 24.146-1.307 2.897-109.94-5.327-0.237 2.163-94.536-9.728 0.538-1.92 92.959-1.729-0.384 0.192 26.313-58.964-3.841 0.192-24.2-13.844 8e-3z" fill="#504533"/>
                <path d="m194.58 264.9 0.192-24.2 29.332 0.304-20.108 11.589-9.416 12.307z" fill="#26282a"/>
                <path d="m253.55 268.74-0.192-26.313-29.248-1.424-20.266 11.796-9.258 12.1 58.964 3.841z" fill="#7e7777"/>
                <path d="m266.73 149.31 8.267 0.538-1.262 94.205-8.745-0.561 1.74-94.182z" fill="#282421"/>
                <path d="m267 354.02 90 1.307 22-30.329-37-47 2-34.507-74.103 0.591-2.897 109.94z" fill="#282421"/>
                <path d="m385.04 303c73.295-14.761 90.505 132.79 13.955 150-65.974 14.832-93.562-133.97-13.955-150z" fill="#26282a"/>
                <path d="m126.8 298.13c70.865-8.509 89.241 136.24 5.203 148.87-85.189 12.804-83.334-139.49-5.203-148.87z" fill="#26282a"/>
                <path d="m145.93 397.91c-14.058-21.608-8.094-36.542 4.876-49.141l26.306 0.95 23.962-3.576 23.927 2.856-3.058 40-6.942 23h-57l-12.071-14.089z" fill="#7e7777"/>
                <path d="m150 333c-42.551 16.752-43.476 60.243-18 79l94.34 13.296 19.66-71.296 21-27-48 6-1.797 11.643 3.751 2.626 0.375 7.503-4.876 1.875c-6.696 18.095-8.935 35.299-5.627 51.393l-64.897-10.129c-6.651-16.38-4.478-32.761 4.876-49.141l17.256 0.375 7.878 0.75 25.134-3.751-2.251-15.756-7.128-7.127-0.75-13.88-1.5-12.754 2.25-9.003c5.26 2.864 9.496 7.264 12.755 13.129 3.986 7.361 8.766 13.4 15.755 15.756l7.503-4.877c1.672-4.044 0.828-7.46-1.501-10.504l-6.377-0.75-4.126 4.502-7.503-13.505-8.628-8.628-11.254 0.75-4.126 8.628-4.127 6.002-0.75 12.38 0.375 10.128-29.26 4.502-0.43 7.863z" fill="#3c4951"/>
                <path d="m285 474c69.152 0.683 95.252-170.93-8-161-73.065 7.03-76.387 160.17 8 161z" fill="#26282a"/>
                <path d="m300 354c29.983-2.928 33.282 75.948-3 80s-27.492-77.022 3-80z" fill="#7e7777"/>
                <path d="m404 417c-22.069 1.898-29.75-65.633 4-74 25.154-6.236 28.492 71.205-4 74z" fill="#7e7777"/>
            </g>
            <g transform="matrix(.96495 0 0 .90478 5.9194 15.33)">
                <path d="m312 96s3.087-0.966 11 1 26.329 36.734 14 49-30.853 20.938-48 10-17.089-8.099-23-13 5-2 5-2 25.531 18.815 38 17 19.677-7.834 25-13c7.158-6.946 2.357-37.59-12-45.5-4.894-2.697-10 0-10 0v-3.5z" fill="#282421" stroke="#000" stroke-width=".86px"/>
            </g>
            <path d="m312 96s3.087-0.966 11 1 26.329 36.734 14 49-30.853 20.938-48 10-17.089-8.099-23-13 5-2 5-2 25.531 18.815 38 17 19.677-7.834 25-13c7.158-6.946 2.357-37.59-12-45.5-4.894-2.697-10 0-10 0v-3.5z" fill="#282421" stroke="#000" stroke-width=".81px"/>
            <g stroke="#000" stroke-width=".81px">
                <path d="m257 149.85-1.005-30.849 20-1-1 31.849-8.267-0.538-9.728 0.538z" fill="#282421"/>
                <path d="m256 119-50-5 27-1 43 5-20 1z" fill="#282421"/>
                <path d="m206 114-3-1v-38l3-3 25-1 2 3v39l-27 1z" fill="#504533"/>
                <path d="m231 71 38.997 5 10.003 32-1 10h-3l-43-5v-39l-2-3z" fill="#282421"/>
                <path d="m262 104 2.993 4 18.007-2 2-3v-27l-4-3-15 1-4 4v26z" fill="#504533"/>
                <path d="m264.99 108 28.376 1.721 17.286-0.96-27.273-2.689-18.389 1.928z" fill="#282421"/>
                <path d="m310.66 108.76 3.345-2.689 1-27.072-2.345-3-31.655-3 4 3v27l-1.618 3.072 27.273 2.689z" fill="#282421"/>
            </g>
            <ellipse cx="219" cy="94.036" rx="9" ry="12.036" fill="#3c4951" stroke="#000" stroke-width=".81px"/>
            <ellipse cx="273" cy="90.5" rx="8.003" ry="11.5" fill="#3c4951" stroke="#000" stroke-width=".81px"/>
            <g transform="translate(1 2.5)">
                <ellipse cx="267.25" cy="88" rx="6.25" ry="9" fill="#c3c0c0" stroke="#000" stroke-width=".81px"/>
            </g>
        
    </g>
</svg>
